<svg width="193" height="200" xmlns="http://www.w3.org/2000/svg" xmlns:xlink="http://www.w3.org/1999/xlink" overflow="hidden"><defs><clipPath id="clip0"><path d="M461 128 654 128 654 328 461 328Z" fill-rule="evenodd" clip-rule="evenodd"/></clipPath><clipPath id="clip1"><path d="M461 128 653 128 653 320 461 320Z" fill-rule="evenodd" clip-rule="evenodd"/></clipPath><clipPath id="clip2"><path d="M461 128 653 128 653 320 461 320Z" fill-rule="evenodd" clip-rule="evenodd"/></clipPath><clipPath id="clip3"><path d="M461 128 653 128 653 320 461 320Z" fill-rule="evenodd" clip-rule="evenodd"/></clipPath></defs><g clip-path="url(#clip0)" transform="translate(-461 -128)"><g clip-path="url(#clip1)"><g clip-path="url(#clip2)"><g clip-path="url(#clip3)"><path d="M640.345 132.8C645.647 132.8 649.945 137.098 649.945 142.4L649.945 267.2C649.945 272.502 645.647 276.8 640.345 276.8L515.545 276.8C510.244 276.8 505.945 272.502 505.945 267.2L505.945 142.4C505.945 137.098 510.244 132.8 515.545 132.8Z" stroke="#9B9DA2" stroke-width="9.6" stroke-opacity="0.1" fill="#9B9DA2" fill-rule="evenodd" fill-opacity="0.4"/><path d="M600.2 171.2C605.502 171.2 609.8 175.498 609.8 180.8L609.8 305.6C609.8 310.902 605.502 315.2 600.2 315.2L475.4 315.2C470.098 315.2 465.8 310.902 465.8 305.6L465.8 180.8C465.8 175.498 470.098 171.2 475.4 171.2Z" stroke="#9B9DA2" stroke-width="9.6" stroke-opacity="0.1" fill="#9B9DA2" fill-rule="evenodd"/></g></g></g><text fill="#FFFFFF" font-family="Calibri,Calibri_MSFontService,sans-serif" font-weight="400" font-size="72" transform="translate(519.803 265)">{weight}</text></g></svg>