<svg width="71" height="71" xmlns="http://www.w3.org/2000/svg" xmlns:xlink="http://www.w3.org/1999/xlink" overflow="hidden"><defs><clipPath id="clip0"><path d="M441 345 512 345 512 416 441 416Z" fill-rule="evenodd" clip-rule="evenodd"/></clipPath><clipPath id="clip1"><path d="M441 345 511 345 511 415 441 415Z" fill-rule="evenodd" clip-rule="evenodd"/></clipPath><clipPath id="clip2"><path d="M441 345 511 345 511 415 441 415Z" fill-rule="evenodd" clip-rule="evenodd"/></clipPath><clipPath id="clip3"><path d="M441 345 511 345 511 415 441 415Z" fill-rule="evenodd" clip-rule="evenodd"/></clipPath></defs><g clip-path="url(#clip0)" transform="translate(-441 -345)"><path d="M450 380.5C450 366.417 461.417 355 475.5 355 489.583 355 501 366.417 501 380.5 501 394.583 489.583 406 475.5 406 461.417 406 450 394.583 450 380.5Z" fill="#FFFFFF" fill-rule="evenodd"/><g clip-path="url(#clip1)"><g clip-path="url(#clip2)"><g clip-path="url(#clip3)"><path d="M476 356.667C463.094 356.667 452.667 367.094 452.667 380 452.667 392.906 463.094 403.333 476 403.333 488.906 403.333 499.333 392.906 499.333 380 499.333 367.094 488.906 356.667 476 356.667ZM476 407.708C460.688 407.708 448.292 395.313 448.292 380 448.292 364.688 460.688 352.292 476 352.292 491.313 352.292 503.708 364.688 503.708 380 503.708 395.313 491.313 407.708 476 407.708Z" fill="#673A93"/><path d="M490.583 374.167 481.833 374.167 481.833 365.417C481.833 363.813 480.521 362.5 478.917 362.5L473.083 362.5C471.479 362.5 470.167 363.813 470.167 365.417L470.167 374.167 461.417 374.167C459.813 374.167 458.5 375.479 458.5 377.083L458.5 382.917C458.5 384.521 459.813 385.833 461.417 385.833L470.167 385.833 470.167 394.583C470.167 396.188 471.479 397.5 473.083 397.5L478.917 397.5C480.521 397.5 481.833 396.188 481.833 394.583L481.833 385.833 490.583 385.833C492.188 385.833 493.5 384.521 493.5 382.917L493.5 377.083C493.5 375.479 492.188 374.167 490.583 374.167Z" fill="#673A93"/></g></g></g></g></svg>