<svg xmlns="http://www.w3.org/2000/svg" xmlns:xlink="http://www.w3.org/1999/xlink" viewBox="0 0 283.46 259.11"><defs><style>.cls-1{fill:none;}.cls-2{clip-path:url(#clip-path);}.cls-3{fill:#48dad0;}.cls-4{fill:#fff;}</style><clipPath id="clip-path" transform="translate(0 0)"><rect class="cls-1" width="283.46" height="259.11"/></clipPath></defs><title>HERE Logo - Neg RGB</title><g id="Layer_2" data-name="Layer 2"><g id="Layer_1-2" data-name="Layer 1"><g id="HERE_Logo_-_Neg_RGB" data-name="HERE Logo - Neg RGB"><g class="cls-2"><polygon class="cls-3" points="0 220.01 39.11 259.12 39.11 259.12 78.22 220.01 0 220.01"/><g class="cls-2"><path class="cls-4" d="M135.36,131.19c-8.17-9.7-7.78-14.93-2.71-20,6.15-6.13,12.38-3.54,19.37,3.26ZM219.09,24.83c6.15-6.13,12.38-3.54,19.37,3.26L221.77,44.78c-8.17-9.7-7.75-14.89-2.68-19.94m50.55,17C262,53.24,248.85,71.66,235,57.79l35.1-35.1c-3.15-3.37-5.54-6.19-7.37-8-18.92-19-40.24-19.22-57-2.56-11.17,11.13-14.09,23.88-10.84,36l-11-12.52c-3.18,1.76-16.66,13.62-6.56,31.57L164.77,56.68,148.05,73.34l22.57,22.57c-17.44-13.84-36.23-12.48-51.31,2.56-16.15,16.1-15,35.61-2.92,51.67L114,147.73C98,131.78,80.67,137.41,72.09,146c-6.62,6.63-10.69,15.75-9,22.08L28.44,133.43,10,151.83,78.22,220h36.6L90.25,195.44c-12.9-13.12-13.13-20.07-6.85-26.3,6-6,13.07-2.27,25.45,10.08l24.28,24.27,18.3-18.3-23-23c16.61,12.56,36.51,13.23,54.26-4.47l.31-.33h0C193.85,147.29,197,137.52,197,137.52l-13.83-9.29c-7.62,11.38-20.76,29.84-34.64,16L183.74,109,205.66,131l19.12-19.12L197.35,84.4c-12.81-12.82-5.22-24.85.11-29.38a54.31,54.31,0,0,0,10.79,15c17.74,17.79,40.67,21.38,60.83,1.27l.32-.33h0c10.88-10.06,14.06-19.84,14.06-19.84Z" transform="translate(0 0)"/></g></g></g></g></g></svg>